<!-- Generator: Adobe Illustrator 24.1.2, SVG Export Plug-In . SVG Version: 6.00 Build 0)  -->
<svg version="1.1" id="Layer_1" xmlns="http://www.w3.org/2000/svg" xmlns:xlink="http://www.w3.org/1999/xlink" x="0px" y="0px"
	 width="512px" height="512px" viewBox="0 0 512 512" enable-background="new 0 0 512 512" xml:space="preserve">
<g>
	<path fill="#FF1E00" d="M50.2,139.7C85.8,58.6,147.3,11.9,235.6,2.9c97-9.9,185.1,47.8,221.3,132c1.2,2.8,2.1,5.7,3.2,8.5
		c0.2,18.9-10.9,33.3-19.7,48.4c-20,34.3-46.4,63.5-76.2,89.7c-28.9,25.3-60.4,46.7-94.1,64.9c-4.3,2.3-8.6,4.5-13.5,5.2
		c-1,0-1.9-0.2-2.8-0.7c-0.8-0.6-1.4-1.3-1.9-2.2c-2.6-5.4-2.1-11.3-2.1-17c-0.1-14.6,0.1-29.2-0.1-43.7
		c-0.1-12.1-3.1-15.2-15.7-16.2c-29.2-2.3-56.8-10.4-82.6-23.8c-38.2-19.8-69.5-47.4-92.1-84.5C54.8,156.1,51.4,148.4,50.2,139.7z"
		/>
	<path fill="#FFAB03" d="M258.4,425c128.8-50.6,189-167.2,204.5-227.5c0.7-2.6,1.5-5.2,2.3-7.8c0.8-2.4,1.8-4.9,4.7-4.7
		c3.6,0.3,1.2,4.2,2.8,5.8c10.2,80.7-19.4,148.1-70.2,208c-39.2,46.2-87.4,81-140.6,109.4c-6.7,3.6-7.9,2-7.8-4.9
		c0.2-24-0.1-47.9-0.1-71.9C253.9,428.2,256.2,426.6,258.4,425"/>
	<path fill="#FFAB03" d="M239.3,429.8c-112.2-5.9-227-110.6-201.8-246.3c7.8-0.8,7.4,6,8.8,10.3c5.4,16.1,11.5,31.9,20.8,46.3
		c37.2,57.8,90,91.8,157.7,102.8c6.6,1.1,13.1,2.2,19.8,2.1c3.9-0.1,7.1,1.3,9.4,4.4l0,0c3.3,3.1,2.8,7.1,2.8,11
		c0.1,17.8,0,35.6,0,53.4C257,431.4,256.9,431.5,239.3,429.8z"/>
	<path fill="#FF6C08" d="M254.2,349.4C161.1,349.1,77.4,291,44.9,204c-2.5-6.8-3.1-14.3-7.3-20.5c2.5-15.1,6.7-29.7,12.7-43.8
		c8.5,9.6,12.5,22,20,32.3c36.8,50.8,86,81.7,147.5,93.1c8.9,1.7,18,2.9,27,3.4c7.5,0.4,9.8,3.7,9.7,10.8
		C254.1,302.7,254.2,326,254.2,349.4z"/>
	<path fill="#FF6C08" d="M472.8,190.7c-2-3.1-2.9-3.1-3.8,0.9c-3,13.9-7.4,27.4-12.9,40.6c-14.7,35.4-35.8,66.6-61.8,94.6
		c-38.7,41.8-83.6,77.1-134.6,102.5c-4.8-2.1-3.5-4.7-3.6-8.5c-0.1-22.7-0.1-49,0-71.6c26.7-15,53.3-30.3,77.8-48.8
		c46.9-35.4,86.1-77.4,113.3-129.9c4.6-8.9,8.5-18.1,12.8-27.1C466.4,158.6,470.6,174.4,472.8,190.7z"/>
</g>
</svg>
